<svg height="512pt" viewBox="0 -24 512 512" width="512pt" xmlns="http://www.w3.org/2000/svg"><path d="m152 335.984375h-144v-8.082031c0-13.199219 10.71875-24 24-24v.082031h24v8h48v-8h24v-.082031c13.28125 0 24 10.800781 24 24zm0 0" fill="#fff"/><path d="m8 335.984375h144v32h-144zm0 0" fill="#94c1ff"/><path d="m223.839844 383.984375v-23.519531c9.59375 4.808594 20.480468 7.519531 32 7.519531 11.441406 0 22.398437-2.71875 32-7.519531v23.519531l-32 40zm0 0" fill="#d7e9ff"/><path d="m223.839844 383.984375 32 40h-96c0-22.082031 17.914062-40 40-40zm0 0" fill="#fff"/><path d="m351.839844 423.984375v24c0 4.398437-3.519532 8-8 8h-176c-4.40625 0-8-3.601563-8-8v-24zm0 0" fill="#94c1ff"/><path d="m335.832031 423.984375v24c0 4.398437-3.519531 8-8 8h16.015625c4.480469 0 8-3.601563 8-8v-24zm0 0" fill="#5c9eff"/><path d="m351.839844 423.984375h-96l32-40h24c22.160156 0 40 17.917969 40 40zm0 0" fill="#fff"/><path d="m311.839844 383.984375h-16.015625c22.160156 0 40 17.917969 40 40h16.015625c0-22.082031-17.839844-40-40-40zm0 0" fill="#d7e9ff"/><path d="m360 335.984375h144v32h-144zm0 0" fill="#94c1ff"/><path d="m504 327.902344v8.082031h-144v-8.082031c0-13.199219 10.71875-24 24-24v.082031h24v8h48v-8h24v-.082031c13.28125 0 24 10.800781 24 24zm0 0" fill="#fff"/><path d="m480 303.902344v.082031h-15.238281c12.910156.421875 23.222656 10.984375 23.222656 23.917969v8.082031-.03125h16.015625v.03125-8.082031c0-13.199219-10.71875-24-24-24zm0 0" fill="#d7e9ff"/><path d="m456 303.984375v8h-48v-29.519531c-18.960938-8.953125-32-28.234375-32-50.554688v-24.085937c0-30.878907 25.039062-56 56-56s56 25.121093 56 56v24.078125c0 22.320312-13.039062 41.601562-32 50.554687zm0 0" fill="#94c1ff"/><path d="m432 151.824219c-2.726562 0-5.382812.253906-8.007812.640625 27.152343 3.886718 47.992187 27.191406 47.992187 55.359375v24.078125c0 22.320312-13.039063 41.601562-32 50.554687v29.527344h16.015625v-29.519531c18.960938-8.953125 32-28.234375 32-50.554688v-24.085937c0-30.878907-25.039062-56-56-56zm0 0" fill="#5c9eff"/><path d="m255.839844 7.984375c35.359375 0 64 28.640625 64 64s-28.640625 64-64 64c-35.28125 0-64-28.640625-64-64s28.71875-64 64-64zm0 0" fill="#d7e9ff"/><path d="m327.359375 247.902344h-143.039063c3.917969-36 34.480469-63.917969 71.601563-63.917969 37.039063 0 67.519531 27.917969 71.4375 63.917969zm0 0" fill="#d7e9ff"/><path d="m327.839844 295.984375c0 28.238281-16.320313 52.71875-40 64.480469-9.601563 4.808594-20.558594 7.519531-32 7.519531-11.519532 0-22.40625-2.71875-32-7.519531-23.601563-11.679688-39.839844-36-40-64.082032v-8.398437h64.160156l8-8 8 8h63.839844zm0 0" fill="#d7e9ff"/><path d="m327.359375 247.902344c-3.917969-36-34.398437-63.917969-71.4375-63.917969-2.722656 0-5.386719.191406-8.019531.488281 33.34375 3.6875 59.808594 30.070313 63.441406 63.4375.320312 2.640625.488281 5.28125.488281 8v40.074219c0 28.238281-16.320312 52.71875-40 64.480469-7.335937 3.671875-15.480469 6.101562-24.007812 7.054687 2.632812.289063 5.304687.464844 8.015625.464844 11.441406 0 22.398437-2.71875 32-7.519531 23.679687-11.761719 40-36.234375 40-64.480469v-40.082031c0-2.71875-.160156-5.359375-.480469-8zm0 0" fill="#94c1ff"/><path d="m56 282.464844c-18.960938-8.960938-32-28.242188-32-50.5625v-24.078125c0-30.878907 25.039062-56 56-56s56 25.121093 56 56v24.078125c0 22.320312-13.039062 41.601562-32 50.554687v29.527344h-48zm0 0" fill="#94c1ff"/><path d="m184.320312 247.902344h143.039063c.320313 2.640625.488281 5.28125.488281 8v32.082031h-63.847656l-8-8-8 8h-64.160156v-32.082031c0-2.71875.160156-5.359375.480468-8zm0 0" fill="#94c1ff"/><path d="m327.359375 247.902344h-16.015625c.320312 2.640625.488281 5.28125.488281 8v32.082031h16.015625v-32.082031c-.007812-2.71875-.167968-5.359375-.488281-8zm0 0" fill="#5c9eff"/><path d="m487.984375 335.953125h16.015625v32.03125h-16.015625zm0 0" fill="#5c9eff"/><path d="m128 303.902344v.082031h-15.238281c12.910156.421875 23.222656 10.984375 23.222656 23.917969v8.082031-.03125h16.015625v.03125-8.082031c0-13.199219-10.71875-24-24-24zm0 0" fill="#d7e9ff"/><path d="m80 151.824219c-2.726562 0-5.382812.253906-8.007812.640625 27.152343 3.886718 47.992187 27.191406 47.992187 55.359375v24.078125c0 22.320312-13.039063 41.601562-32 50.554687v29.527344h16.015625v-29.519531c18.960938-8.953125 32-28.234375 32-50.554688v-24.085937c0-30.878907-25.039062-56-56-56zm0 0" fill="#5c9eff"/><path d="m135.984375 335.953125h16.015625v32.03125h-16.015625zm0 0" fill="#5c9eff"/><g fill="#116fff"><path d="m159.871094 455.96875c-4.421875 0-8-3.578125-8-8v-23.984375c0-4.425781 3.578125-8 8-8 4.425781 0 8 3.574219 8 8v23.984375c0 4.421875-3.574219 8-8 8zm0 0"/><path d="m167.871094 463.96875c-8.824219 0-16-7.175781-16-16 0-4.25 3.34375-7.3125 7.585937-7.542969 4.535157-.296875 7.933594 3.328125 8.414063 7.535157 4.417968 0 8 3.582031 8 8 0 4.421874-3.574219 8.007812-8 8.007812zm0 0"/><path d="m159.871094 431.984375c-4.421875 0-8-3.578125-8-8 0-26.472656 21.527344-48 48-48 4.425781 0 8 3.574219 8 8 0 4.421875-3.574219 8-8 8-17.648438 0-32 14.351563-32 32 0 4.421875-3.574219 8-8 8zm0 0"/><path d="m223.871094 391.984375h-24c-4.421875 0-8-3.578125-8-8 0-4.425781 3.578125-8 8-8h24c4.425781 0 8 3.574219 8 8 0 4.421875-3.574219 8-8 8zm0 0"/><path d="m351.871094 431.984375c-4.421875 0-8-3.578125-8-8 0-17.648437-14.351563-32-32-32-4.421875 0-8-3.578125-8-8 0-4.425781 3.578125-8 8-8 26.472656 0 48 21.527344 48 48 0 4.421875-3.574219 8-8 8zm0 0"/><path d="m311.871094 391.984375h-24c-4.421875 0-8-3.578125-8-8 0-4.425781 3.578125-8 8-8h24c4.425781 0 8 3.574219 8 8 0 4.421875-3.574219 8-8 8zm0 0"/><path d="m351.871094 455.96875c-4.421875 0-8-3.578125-8-8v-23.984375c0-4.425781 3.578125-8 8-8 4.425781 0 8 3.574219 8 8v23.984375c0 4.421875-3.574219 8-8 8zm0 0"/><path d="m343.871094 463.96875c-4.421875 0-8-3.578125-8-8 0-4.425781 3.578125-8 8-8 0-4.425781 3.578125-8 8-8 4.425781 0 8 3.574219 8 8 0 8.824219-7.175782 16-16 16zm0 0"/><path d="m343.871094 463.96875h-176c-4.421875 0-8-3.578125-8-8 0-4.425781 3.578125-8 8-8h176c4.425781 0 8 3.574219 8 8 0 4.421875-3.574219 8-8 8zm0 0"/><path d="m255.863281 375.984375c-44.109375 0-79.992187-35.878906-79.992187-79.984375 0-4.425781 3.578125-8 8-8 4.425781 0 8 3.574219 8 8 0 35.28125 28.703125 63.984375 63.992187 63.984375 35.296875 0 64.007813-28.703125 64.007813-63.984375 0-4.425781 3.578125-8 8-8 4.425781 0 8 3.574219 8 8 0 44.105469-35.886719 79.984375-80.007813 79.984375zm0 0"/><path d="m327.871094 263.953125c-4.421875 0-8-3.578125-8-8 0-35.28125-28.703125-63.984375-63.992188-63.984375-35.292968 0-64.007812 28.703125-64.007812 63.984375 0 4.421875-3.574219 8-8 8-4.421875 0-8-3.578125-8-8 0-44.105469 35.890625-79.984375 80.007812-79.984375 44.113282 0 79.992188 35.878906 79.992188 79.984375 0 4.421875-3.574219 8-8 8zm0 0"/><path d="m183.871094 304.390625c-4.421875 0-8-3.574219-8-8v-40.40625c0-4.425781 3.578125-8 8-8 4.425781 0 8 3.574219 8 8v40.40625c0 4.425781-3.574219 8-8 8zm0 0"/><path d="m327.871094 304c-4.421875 0-8-3.574219-8-8v-40.015625c0-4.425781 3.578125-8 8-8 4.425781 0 8 3.574219 8 8v40.015625c0 4.425781-3.574219 8-8 8zm0 0"/><path d="m360 335.9375c-4.425781 0-8-3.578125-8-8 0-17.648438 14.351562-32 32-32 4.425781 0 8 3.574219 8 8 0 4.421875-3.574219 8-8 8-8.824219 0-16 7.175781-16 16 0 4.421875-3.574219 8-8 8zm0 0"/><path d="m408 311.984375h-24c-4.425781 0-8-3.578125-8-8 0-4.425781 3.574219-8 8-8h24c4.425781 0 8 3.574219 8 8 0 4.421875-3.574219 8-8 8zm0 0"/><path d="m360 375.984375c-4.425781 0-8-3.578125-8-8v-40.046875c0-4.425781 3.574219-8 8-8s8 3.574219 8 8v40.046875c0 4.421875-3.574219 8-8 8zm0 0"/><path d="m504 335.9375c-4.425781 0-8-3.578125-8-8 0-8.824219-7.175781-16-16-16-4.425781 0-8-3.578125-8-8 0-4.425781 3.574219-8 8-8 17.648438 0 32 14.351562 32 32 0 4.421875-3.574219 8-8 8zm0 0"/><path d="m480 311.984375h-24c-4.425781 0-8-3.578125-8-8 0-4.425781 3.574219-8 8-8h24c4.425781 0 8 3.574219 8 8 0 4.421875-3.574219 8-8 8zm0 0"/><path d="m504 375.984375c-4.425781 0-8-3.578125-8-8v-40.046875c0-4.425781 3.574219-8 8-8s8 3.574219 8 8v40.046875c0 4.421875-3.574219 8-8 8zm0 0"/><path d="m504 375.984375h-144c-4.425781 0-8-3.578125-8-8 0-4.425781 3.574219-8 8-8h144c4.425781 0 8 3.574219 8 8 0 4.421875-3.574219 8-8 8zm0 0"/><path d="m408 320c-4.425781 0-8-3.574219-8-8v-29.488281c0-4.421875 3.574219-8 8-8s8 3.578125 8 8v29.488281c0 4.425781-3.574219 8-8 8zm0 0"/><path d="m456 319.953125c-4.425781 0-8-3.578125-8-8v-29.441406c0-4.421875 3.574219-8 8-8s8 3.578125 8 8v29.441406c0 4.421875-3.574219 8-8 8zm0 0"/><path d="m416.015625 293.59375c-.75 0-1.511719-.105469-2.28125-.328125-26.925781-8-45.734375-33.21875-45.734375-61.328125 0-4.425781 3.574219-8 8-8s8 3.574219 8 8c0 21.078125 14.105469 39.992188 34.296875 45.984375 4.230469 1.253906 6.648437 5.71875 5.390625 9.949219-1.039062 3.472656-4.214844 5.722656-7.671875 5.722656zm0 0"/><path d="m448 293.59375c-3.457031 0-6.632812-2.242188-7.671875-5.722656-1.257813-4.230469 1.160156-8.6875 5.390625-9.949219 20.183594-5.992187 34.28125-24.90625 34.28125-45.984375 0-4.425781 3.574219-8 8-8s8 3.574219 8 8c0 28.109375-18.808594 53.328125-45.71875 61.328125-.769531.222656-1.527344.328125-2.28125.328125zm0 0"/><path d="m488 239.9375c-4.425781 0-8-3.578125-8-8v-23.96875c0-4.425781 3.574219-8 8-8s8 3.574219 8 8v23.96875c0 4.421875-3.574219 8-8 8zm0 0"/><path d="m376 239.9375c-4.425781 0-8-3.578125-8-8v-23.96875c0-4.425781 3.574219-8 8-8s8 3.574219 8 8v23.96875c0 4.421875-3.574219 8-8 8zm0 0"/><path d="m488 215.824219c-4.425781 0-8-3.578125-8-8 0-26.457031-21.527344-47.96875-48-47.96875s-48 21.511719-48 47.96875c0 4.421875-3.574219 8-8 8s-8-3.578125-8-8c0-35.273438 28.710938-63.96875 64-63.96875s64 28.695312 64 63.96875c0 4.421875-3.574219 8-8 8zm0 0"/><path d="m456 320h-48c-4.425781 0-8-3.574219-8-8s3.574219-8 8-8h48c4.425781 0 8 3.574219 8 8s-3.574219 8-8 8zm0 0"/><path d="m455.992188 223.984375h-7.992188c-4.425781 0-8-3.578125-8-8 0-4.425781 3.574219-8 8-8h7.992188c4.421874 0 8 3.574219 8 8 0 4.421875-3.578126 8-8 8zm0 0"/><path d="m415.992188 223.984375h-7.992188c-4.425781 0-8-3.578125-8-8 0-4.425781 3.574219-8 8-8h7.992188c4.421874 0 8 3.574219 8 8 0 4.421875-3.578126 8-8 8zm0 0"/><path d="m504 343.96875h-144c-4.425781 0-8-3.578125-8-8 0-4.425781 3.574219-8 8-8h144c4.425781 0 8 3.574219 8 8 0 4.421875-3.574219 8-8 8zm0 0"/><path d="m8 335.9375c-4.425781 0-8-3.578125-8-8 0-17.648438 14.351562-32 32-32 4.425781 0 8 3.574219 8 8 0 4.421875-3.574219 8-8 8-8.824219 0-16 7.175781-16 16 0 4.421875-3.574219 8-8 8zm0 0"/><path d="m56 311.984375h-24c-4.425781 0-8-3.578125-8-8 0-4.425781 3.574219-8 8-8h24c4.425781 0 8 3.574219 8 8 0 4.421875-3.574219 8-8 8zm0 0"/><path d="m8 375.984375c-4.425781 0-8-3.578125-8-8v-40.046875c0-4.425781 3.574219-8 8-8s8 3.574219 8 8v40.046875c0 4.421875-3.574219 8-8 8zm0 0"/><path d="m152 335.9375c-4.425781 0-8-3.578125-8-8 0-8.824219-7.175781-16-16-16-4.425781 0-8-3.578125-8-8 0-4.425781 3.574219-8 8-8 17.648438 0 32 14.351562 32 32 0 4.421875-3.574219 8-8 8zm0 0"/><path d="m128 311.984375h-24c-4.425781 0-8-3.578125-8-8 0-4.425781 3.574219-8 8-8h24c4.425781 0 8 3.574219 8 8 0 4.421875-3.574219 8-8 8zm0 0"/><path d="m152 375.984375c-4.425781 0-8-3.578125-8-8v-40.046875c0-4.425781 3.574219-8 8-8s8 3.574219 8 8v40.046875c0 4.421875-3.574219 8-8 8zm0 0"/><path d="m152 375.984375h-144c-4.425781 0-8-3.578125-8-8 0-4.425781 3.574219-8 8-8h144c4.425781 0 8 3.574219 8 8 0 4.421875-3.574219 8-8 8zm0 0"/><path d="m56 320c-4.425781 0-8-3.574219-8-8v-29.488281c0-4.421875 3.574219-8 8-8s8 3.578125 8 8v29.488281c0 4.425781-3.574219 8-8 8zm0 0"/><path d="m104 319.953125c-4.425781 0-8-3.578125-8-8v-29.441406c0-4.421875 3.574219-8 8-8s8 3.578125 8 8v29.441406c0 4.421875-3.574219 8-8 8zm0 0"/><path d="m64.015625 293.59375c-.75 0-1.511719-.105469-2.28125-.328125-26.925781-8-45.734375-33.21875-45.734375-61.328125 0-4.425781 3.574219-8 8-8s8 3.574219 8 8c0 21.078125 14.105469 39.992188 34.296875 45.984375 4.230469 1.253906 6.648437 5.71875 5.390625 9.949219-1.039062 3.472656-4.214844 5.722656-7.671875 5.722656zm0 0"/><path d="m96 293.59375c-3.457031 0-6.632812-2.242188-7.671875-5.722656-1.257813-4.230469 1.160156-8.6875 5.390625-9.949219 20.183594-5.992187 34.28125-24.90625 34.28125-45.984375 0-4.425781 3.574219-8 8-8s8 3.574219 8 8c0 28.109375-18.808594 53.328125-45.71875 61.328125-.769531.222656-1.527344.328125-2.28125.328125zm0 0"/><path d="m136 239.9375c-4.425781 0-8-3.578125-8-8v-23.96875c0-4.425781 3.574219-8 8-8s8 3.574219 8 8v23.96875c0 4.421875-3.574219 8-8 8zm0 0"/><path d="m24 239.9375c-4.425781 0-8-3.578125-8-8v-23.96875c0-4.425781 3.574219-8 8-8s8 3.574219 8 8v23.96875c0 4.421875-3.574219 8-8 8zm0 0"/><path d="m136 215.824219c-4.425781 0-8-3.578125-8-8 0-26.457031-21.527344-47.96875-48-47.96875s-48 21.511719-48 47.96875c0 4.421875-3.574219 8-8 8s-8-3.578125-8-8c0-35.273438 28.710938-63.96875 64-63.96875s64 28.695312 64 63.96875c0 4.421875-3.574219 8-8 8zm0 0"/><path d="m104 320h-48c-4.425781 0-8-3.574219-8-8s3.574219-8 8-8h48c4.425781 0 8 3.574219 8 8s-3.574219 8-8 8zm0 0"/><path d="m103.992188 223.984375h-7.992188c-4.425781 0-8-3.578125-8-8 0-4.425781 3.574219-8 8-8h7.992188c4.421874 0 8 3.574219 8 8 0 4.421875-3.578126 8-8 8zm0 0"/><path d="m63.992188 223.984375h-7.992188c-4.425781 0-8-3.578125-8-8 0-4.425781 3.574219-8 8-8h7.992188c4.421874 0 8 3.574219 8 8 0 4.421875-3.578126 8-8 8zm0 0"/><path d="m152 343.96875h-144c-4.425781 0-8-3.578125-8-8 0-4.425781 3.574219-8 8-8h144c4.425781 0 8 3.574219 8 8 0 4.421875-3.574219 8-8 8zm0 0"/><path d="m223.871094 391.984375c-4.421875 0-8-3.578125-8-8v-23.488281c0-4.425782 3.578125-8 8-8 4.425781 0 8 3.574218 8 8v23.488281c0 4.421875-3.574219 8-8 8zm0 0"/><path d="m287.871094 391.984375c-4.421875 0-8-3.578125-8-8v-23.542969c0-4.425781 3.578125-8 8-8 4.425781 0 8 3.574219 8 8v23.542969c0 4.421875-3.574219 8-8 8zm0 0"/><path d="m351.871094 431.96875h-192c-4.421875 0-8-3.578125-8-8 0-4.425781 3.578125-8 8-8h192c4.425781 0 8 3.574219 8 8 0 4.421875-3.574219 8-8 8zm0 0"/><path d="m255.878906 431.984375c-2.351562 0-4.671875-1.023437-6.253906-3l-32-40c-2.761719-3.457031-2.191406-8.488281 1.246094-11.25 3.464844-2.765625 8.488281-2.199219 11.25 1.25l32 40c2.757812 3.457031 2.191406 8.488281-1.25 11.246094-1.472656 1.183593-3.238282 1.753906-4.992188 1.753906zm0 0"/><path d="m255.863281 431.984375c-1.75 0-3.511719-.570313-4.992187-1.753906-3.445313-2.765625-4.007813-7.796875-1.246094-11.246094l32-40c2.765625-3.433594 7.800781-4.007813 11.246094-1.25 3.449218 2.769531 4.007812 7.800781 1.25 11.25l-32 40c-1.585938 1.96875-3.90625 3-6.257813 3zm0 0"/><path d="m327.433594 255.953125h-143.113282c-4.425781 0-8-3.578125-8-8 0-4.425781 3.574219-8 8-8h143.113282c4.421875 0 8 3.574219 8 8 0 4.421875-3.585938 8-8 8zm0 0"/><path d="m327.871094 295.984375h-63.878906c-2.128907 0-4.160157-.839844-5.65625-2.34375l-2.34375-2.34375-2.328126 2.335937c-1.496093 1.511719-3.535156 2.351563-5.664062 2.351563h-64.128906c-4.421875 0-8-3.578125-8-8 0-4.425781 3.578125-8 8-8h60.808594l5.640624-5.664063c1.496094-1.503906 3.527344-2.351562 5.65625-2.351562h.007813c2.128906 0 4.160156.839844 5.65625 2.34375l5.664063 5.671875h60.566406c4.425781 0 8 3.574219 8 8 0 4.421875-3.574219 8-8 8zm0 0"/><path d="m232 263.96875h-16c-4.425781 0-8-3.578125-8-8 0-4.425781 3.574219-8 8-8h16c4.425781 0 8 3.574219 8 8 0 4.421875-3.574219 8-8 8zm0 0"/><path d="m295.871094 263.96875h-16c-4.421875 0-8-3.578125-8-8 0-4.425781 3.578125-8 8-8h16c4.425781 0 8 3.574219 8 8 0 4.421875-3.574219 8-8 8zm0 0"/><path d="m327.878906 271.839844c-2.957031 0-5.808594-1.648438-7.191406-4.488282-1.933594-3.96875-.296875-8.757812 3.671875-10.703124l16.121094-7.886719c3.96875-1.945313 8.757812-.289063 10.703125 3.671875 1.9375 3.964844.296875 8.757812-3.671875 10.703125l-16.121094 7.886719c-1.132813.5625-2.328125.816406-3.511719.816406zm0 0"/><path d="m343.984375 279.96875c-1.207031 0-2.441406-.273438-3.59375-.855469l-16.117187-8.128906c-3.945313-1.984375-5.53125-6.800781-3.539063-10.746094 1.984375-3.941406 6.785156-5.550781 10.746094-3.535156l16.121093 8.128906c3.941407 1.984375 5.527344 6.800781 3.535157 10.742188-1.410157 2.785156-4.226563 4.394531-7.152344 4.394531zm0 0"/><path d="m255.871094 144c-39.703125 0-72-32.296875-72-72s32.296875-72 72-72 72 32.296875 72 72-32.296875 72-72 72zm0-128c-30.871094 0-56 25.128906-56 56s25.128906 56 56 56 56-25.128906 56-56-25.117188-56-56-56zm0 0"/><path d="m255.871094 80c-4.421875 0-8-3.574219-8-8v-32c0-4.425781 3.578125-8 8-8 4.425781 0 8 3.574219 8 8v32c0 4.425781-3.574219 8-8 8zm0 0"/><path d="m256.121094 104c-4.425782 0-8.042969-3.574219-8.042969-8s3.539063-8 7.953125-8h.089844c4.414062 0 8 3.574219 8 8s-3.59375 8-8 8zm0 0"/></g></svg>